<?xml version="1.0" encoding="UTF-8"?>
<svg xmlns="http://www.w3.org/2000/svg" xmlns:xlink="http://www.w3.org/1999/xlink" version="1.1" id="Layer_1" x="0px" y="0px" viewBox="0 0 60 44" style="enable-background:new 0 0 60 44;" xml:space="preserve">
<style type="text/css">
	.st0{fill:#FFFFFF;}
</style>
<path class="st0" d="M31.4,24.8c0,4.8,0,9.6,0,14.5c0,0.7-0.2,1.2-0.7,1.6c-0.8,0.7-1.5,1.6-2.3,2.3c-0.3,0.3-0.7,0.5-1.1,0.5  c-3.9,0-7.9,0-11.8,0c-0.7,0-1.2-0.2-1.6-0.7c-3-3-6.1-6.1-9.1-9.1c-0.5-0.5-0.7-1-0.7-1.7c0-7.8,0-15.5,0-23.3C4,8,4.3,7.6,5.2,7.6  c1.6,0,3.3,0,4.9,0c0.9,0,1.2,0.3,1.2,1.2c0,8.3,0,16.6,0,24.9c0,1.8,1.7,3.5,3.5,3.5c2.8,0,5.6,0,8.4,0c0.8,0,0.9-0.1,0.9-0.9  c0-8,0-16,0-24c0-0.9,0.3-1.7,1-2.3C28,7,30.9,4.1,33.8,1.2c0.6-0.6,1.2-0.9,2-0.9c3,0,6,0,9,0c0.8,0,1.4,0.2,1.9,0.8c3,3,6,6,9,9  c0.6,0.6,0.9,1.2,0.9,2c0,1.9,0,3.9,0,5.8c0,0.8-0.3,1.4-0.8,2c-4,4-8,8-12,12c-0.5,0.5-1.1,0.8-1.9,0.8c-1.9,0-3.8,0-5.8,0  c-0.9,0-1.1-0.2-1.1-1.1c0-1.6,0-3.2,0-4.9c0-0.9,0.2-1.1,1.1-1.1c1.2,0,2.3,0,3.5,0c0.3,0,0.6-0.1,0.8-0.3c2.9-2.8,5.7-5.7,8.6-8.6  c0.2-0.2,0.3-0.5,0.3-0.7c0-2,0-4,0-5.9c0-1.5-1-2.4-2.5-2.4c-4.3,0-8.6,0-12.8,0c-1.8,0-2.5,0.7-2.5,2.5  C31.4,15,31.4,19.9,31.4,24.8L31.4,24.8z"></path>
</svg>
